<?xml version="1.0" encoding="UTF-8"?>
<svg version="1.1" xmlns="http://www.w3.org/2000/svg" width="192" height="192">
<path d="M0 0 C18.96657262 17.55831698 28.61381002 42.33208998 29.8125 67.8125 C30.54016726 94.11588216 19.98692248 118.25407932 2.24609375 137.37109375 C-15.9988335 155.6745922 -40.1624021 165.52350162 -65.94628906 165.83544922 C-80.59407049 165.68546104 -95.23111196 163.02773409 -107.9375 155.5 C-114.20005014 152.080148 -120.13659982 152.43673054 -127.07128906 153.03393555 C-131.76252342 153.32448167 -134.43159472 153.12952851 -138.1171875 150.046875 C-144.4838828 143.69596413 -146.36165281 138.06606713 -147 129.25 C-147.55886799 121.65379709 -149.5266789 116.21349758 -153.15014648 109.56762695 C-164.36392729 88.93601241 -164.2876034 63.06710041 -157.86035156 40.92822266 C-150.36733349 17.36708526 -134.29737092 -2.68398562 -112.46044922 -14.40063477 C-74.65931803 -33.77565337 -31.7387977 -28.08171508 0 0 Z " fill="#000000" transform="translate(162.1875,26.1875)"/>
<path d="M0 0 C4.83405865 3.91328558 8.82357777 7.52215553 11.625 13.125 C11.955 7.185 12.285 1.245 12.625 -4.875 C18.235 -4.875 23.845 -4.875 29.625 -4.875 C29.625 20.205 29.625 45.285 29.625 71.125 C24.345 71.125 19.065 71.125 13.625 71.125 C13.13 60.73 13.13 60.73 12.625 50.125 C11.305 53.095 9.985 56.065 8.625 59.125 C3.6966434 67.18491652 -3.60101718 70.01573589 -12.33203125 72.734375 C-23.27149925 74.82605148 -33.89044994 72.99725075 -43.390625 67.32421875 C-48.87026592 63.55147132 -53.02875382 59.89438996 -56.375 54.125 C-56.375 53.465 -56.375 52.805 -56.375 52.125 C-57.42880859 53.09566406 -57.42880859 53.09566406 -58.50390625 54.0859375 C-63.76102989 57.5742372 -70.24773609 56.78118131 -76.3125 56.75 C-77.56224609 56.78222656 -78.81199219 56.81445312 -80.09960938 56.84765625 C-86.80611576 56.85477946 -91.35540593 56.62715897 -96.26489258 51.80615234 C-97.93929747 49.27042504 -98.20931689 47.07998041 -97.9453125 44.08984375 C-96.92436167 40.57245836 -94.98057679 38.66853925 -92.375 36.125 C-89.55675808 34.71587904 -87.20248718 35.01316447 -84.0546875 35.02734375 C-82.79785156 35.03056641 -81.54101562 35.03378906 -80.24609375 35.03710938 C-78.92738281 35.04548828 -77.60867187 35.05386719 -76.25 35.0625 C-74.91015789 35.06751511 -73.570314 35.07207799 -72.23046875 35.07617188 C-68.94526794 35.08798914 -65.66015603 35.10446383 -62.375 35.125 C-62.32093994 34.31820801 -62.26687988 33.51141602 -62.21118164 32.68017578 C-62.09311157 31.07891846 -62.09311157 31.07891846 -61.97265625 29.4453125 C-61.86062866 27.86387451 -61.86062866 27.86387451 -61.74633789 26.25048828 C-60.53166765 16.0268141 -54.73344624 7.38612616 -46.76171875 1.046875 C-31.15393682 -9.46133462 -16.29989227 -9.0554957 0 0 Z " fill="#F9F9F9" transform="translate(112.375,61.875)"/>
<path d="M0 0 C6.27356523 3.52077667 10.43520873 8.06902616 12.6875 14.9375 C13.55851547 22.28036301 13.30386841 28.94137902 8.6875 34.9375 C2.88428359 41.17287082 -2.13119814 43.92411216 -10.6875 44.3125 C-17.20497006 44.15353732 -21.51008161 42.54053684 -26.2890625 38.1015625 C-32.18683995 31.76691264 -33.82702343 26.28296064 -33.6171875 17.6796875 C-32.7998349 10.32351406 -28.87729837 6.05651253 -23.41015625 1.3828125 C-16.2473564 -3.55244997 -7.78234198 -3.57376429 0 0 Z " fill="#020202" transform="translate(100.3125,74.0625)"/>
<path d="M0 0 C0.87333984 -0.02900391 1.74667969 -0.05800781 2.64648438 -0.08789062 C8.67978001 -0.14646631 13.37253875 0.68493746 18.3125 4.3125 C22.73311031 9.58053956 21.86791548 15.79826984 21.3125 22.3125 C20.00669995 29.64802381 14.95801545 35.70040172 10.3125 41.3125 C5.26499299 43.83625351 -2.1994849 42.86783486 -7.6875 42.3125 C-13.79337814 39.74881399 -17.21180028 33.19484437 -19.6875 27.3125 C-21.40914081 20.55752712 -22.04559967 13.07720289 -18.9375 6.75 C-13.10087337 0.42698782 -8.22525195 0.08908215 0 0 Z " fill="#101010" transform="translate(35.6875,136.6875)"/>
<path d="M0 0 C2.41796875 0.1328125 2.41796875 0.1328125 5 1 C6.36328125 3.1796875 6.36328125 3.1796875 7.3125 5.875 C7.63863281 6.75929687 7.96476562 7.64359375 8.30078125 8.5546875 C9 11 9 11 9 14 C8.01 14 7.02 14 6 14 C5.34 13.01 4.68 12.02 4 11 C3.01 11 2.02 11 1 11 C1 10.01 1 9.02 1 8 C1.66 8 2.32 8 3 8 C3 6.35 3 4.7 3 3 C2.34 3 1.68 3 1 3 C0.896875 3.70125 0.79375 4.4025 0.6875 5.125 C-0.09359003 8.39137647 -1.42058743 11.0471852 -3 14 C-3.66 14 -4.32 14 -5 14 C-4.3288162 9.70442365 -3.19562682 3.19562682 0 0 Z " fill="#AFAFAF" transform="translate(31,147)"/>
<path d="M0 0 C3.125 -0.1875 3.125 -0.1875 6 0 C6 0.33 6 0.66 6 1 C4.35 1.33 2.7 1.66 1 2 C0.957279 3.66611905 0.95936168 5.33382885 1 7 C1.33 7.33 1.66 7.66 2 8 C2.04063832 9.66617115 2.042721 11.33388095 2 13 C1.48050781 13.25394531 0.96101563 13.50789063 0.42578125 13.76953125 C-9.63211236 18.7334085 -17.18432863 24.98893685 -25 33 C-25.99 32.67 -26.98 32.34 -28 32 C-26.33333333 30.33333333 -24.66666667 28.66666667 -23 27 C-22.236875 26.175 -21.47375 25.35 -20.6875 24.5 C-17.38969337 21.4322729 -13.85256306 19.29739999 -10 17 C-7.88530137 15.643471 -5.77305442 14.28335196 -3.6640625 12.91796875 C-2 12 -2 12 0 12 C-0.16757812 11.38511719 -0.33515625 10.77023438 -0.5078125 10.13671875 C-0.71148437 9.32847656 -0.91515625 8.52023438 -1.125 7.6875 C-1.33382813 6.88699219 -1.54265625 6.08648437 -1.7578125 5.26171875 C-2 3 -2 3 0 0 Z " fill="#242424" transform="translate(33,66)"/>
<path d="M0 0 C3.29714793 0.32971479 4.6226839 0.6226839 7 3 C6.63318342 5.93453261 6.13562754 6.86437246 4 9 C-0.55555556 8.44444444 -0.55555556 8.44444444 -2 7 C-2.1875 4.5625 -2.1875 4.5625 -2 2 C-1.34 1.34 -0.68 0.68 0 0 Z " fill="#131313" transform="translate(24,103)"/>
<path d="M0 0 C4.55555556 0.55555556 4.55555556 0.55555556 6 2 C6.1875 4.4375 6.1875 4.4375 6 7 C5.34 7.66 4.68 8.32 4 9 C-0.55555556 8.44444444 -0.55555556 8.44444444 -2 7 C-2.1875 4.5625 -2.1875 4.5625 -2 2 C-1.34 1.34 -0.68 0.68 0 0 Z " fill="#0E0E0E" transform="translate(44,103)"/>
<path d="M0 0 C0.33 0 0.66 0 1 0 C1.06058594 0.84304687 1.12117187 1.68609375 1.18359375 2.5546875 C1.26738281 3.65039062 1.35117187 4.74609375 1.4375 5.875 C1.51871094 6.96554688 1.59992187 8.05609375 1.68359375 9.1796875 C1.83001703 11.94728971 1.83001703 11.94728971 3 14 C3.62390625 14.29261719 4.2478125 14.58523437 4.890625 14.88671875 C7.38233678 16.20178886 8.22609373 17.46837359 9.75 19.8125 C12.8310438 24.14966166 16.338868 26.53930087 21 29 C20.01 29.33 19.02 29.66 18 30 C12.86943549 27.28703625 8.91244826 23.07390302 5.421875 18.515625 C3.79983134 16.61130854 3.79983134 16.61130854 0 15 C0 10.05 0 5.1 0 0 Z " fill="#404040" transform="translate(2,101)"/>
<path d="M0 0 C0.99 0 1.98 0 3 0 C3 4.62 3 9.24 3 14 C2.01 14 1.02 14 0 14 C0 9.38 0 4.76 0 0 Z " fill="#BFBFBF" transform="translate(42,147)"/>
<path d="M0 0 C2.33936818 2.12669835 3.80653848 4.06224856 5 7 C5 7.99 5 8.98 5 10 C4.01 10 3.02 10 2 10 C0.68373308 6.38026598 0 3.90432869 0 0 Z " fill="#D5D5D5" transform="translate(35,151)"/>
<path d="M0 0 C0.93065133 2.60582371 1.14917407 3.64198224 0.0625 6.25 C-0.4634375 7.11625 -0.4634375 7.11625 -1 8 C-1.66 8 -2.32 8 -3 8 C-2.45276317 4.62537285 -1.9451 2.91765 0 0 Z " fill="#D3D3D3" transform="translate(29,153)"/>
</svg>
