<?xml version="1.0" standalone="no"?>
<!DOCTYPE svg PUBLIC "-//W3C//DTD SVG 20010904//EN"
 "http://www.w3.org/TR/2001/REC-SVG-20010904/DTD/svg10.dtd">
<svg version="1.0" xmlns="http://www.w3.org/2000/svg"
 width="192.000000pt" height="192.000000pt" viewBox="0 0 192.000000 192.000000"
 preserveAspectRatio="xMidYMid meet">

<g transform="translate(0.000000,192.000000) scale(0.100000,-0.100000)"
fill="#000000" stroke="none">
<path d="M0 960 l0 -960 960 0 960 0 0 960 0 960 -960 0 -960 0 0 -960z m998
728 c16 -16 15 -48 -2 -67 -8 -9 -16 -36 -17 -60 l-3 -44 60 -13 c124 -25 205
-88 261 -201 37 -74 38 -79 41 -209 l4 -134 -76 0 -76 0 0 -57 0 -57 -32 36
c-130 141 -356 94 -442 -91 -32 -70 -30 -197 5 -271 54 -114 134 -171 242
-172 77 -1 128 20 185 75 l42 41 0 -57 0 -57 80 0 80 0 0 500 0 500 75 0 75 0
0 -281 0 -281 40 -48 c39 -47 89 -141 90 -170 1 -8 15 -24 33 -35 37 -23 64
-87 54 -127 -4 -14 -16 -36 -26 -49 -19 -23 -20 -23 -38 -6 -15 14 -16 21 -5
37 49 79 -52 158 -111 87 -14 -16 -17 -31 -13 -58 4 -26 2 -40 -9 -49 -8 -7
-15 -26 -15 -42 0 -19 -10 -40 -29 -59 l-29 -29 -397 0 c-272 0 -403 3 -418
11 -54 27 -57 40 -57 239 l0 185 -57 1 c-92 0 -173 54 -208 137 -12 28 -21 37
-40 37 -13 0 -40 14 -59 31 -51 44 -60 112 -22 164 14 19 14 19 35 1 15 -13
18 -23 11 -30 -17 -17 -11 -75 10 -96 60 -60 154 26 105 97 -8 12 -25 23 -38
25 -16 2 -23 11 -25 31 -3 24 0 27 26 27 54 0 112 -66 112 -128 0 -16 -11 -46
-25 -66 -18 -26 -23 -44 -19 -62 13 -51 104 -100 165 -87 24 5 29 10 29 35 0
45 48 88 97 88 29 0 46 7 63 25 l23 25 -70 0 c-50 0 -74 4 -83 15 -9 11 -11
53 -8 152 3 123 7 144 30 195 52 111 166 199 279 214 l49 7 0 44 c0 30 -7 53
-20 70 -24 31 -25 37 -4 57 18 19 55 21 72 4z m69 -859 c67 -25 113 -95 113
-171 -1 -165 -181 -244 -291 -128 -36 38 -49 74 -49 136 0 117 120 204 227
163z"/>
<path d="M784 1301 c-113 -52 -111 -208 3 -257 49 -21 314 -19 359 2 102 48
107 176 10 248 -24 19 -44 21 -179 24 -132 2 -157 0 -193 -17z m84 -87 c28
-19 28 -55 1 -80 -19 -17 -23 -17 -47 -3 -36 20 -41 61 -10 83 28 20 28 20 56
0z m263 -16 c21 -39 -19 -86 -61 -73 -44 14 -49 79 -7 94 29 11 55 3 68 -21z"/>
<path d="M1500 590 c0 -33 3 -60 8 -60 13 1 42 27 42 38 0 18 -33 82 -42 82
-4 0 -8 -27 -8 -60z"/>
</g>
</svg>
